CodaCaption-Light.ufo
<glyph name="quotedbl" format="1">
  <advance width="646"/>
  <unicode hex="0022"/>
  <outline>
    <contour>
      <point x="473" y="946" type="curve"/>
      <point x="472" y="945"/>
      <point x="481" y="937"/>
      <point x="480" y="929" type="curve" smooth="yes"/>
      <point x="480" y="929"/>
      <point x="544" y="1284"/>
      <point x="544" y="1361" type="curve" smooth="yes"/>
      <point x="544" y="1435"/>
      <point x="523" y="1470"/>
      <point x="473" y="1470" type="curve" smooth="yes"/>
      <point x="403" y="1470"/>
      <point x="400" y="1434"/>
      <point x="400" y="1342" type="curve" smooth="yes"/>
      <point x="400" y="1273"/>
      <point x="465" y="933"/>
      <point x="467" y="933" type="curve" smooth="yes"/>
      <point x="468" y="933"/>
      <point x="463" y="941"/>
    </contour>
    <contour>
      <point x="197" y="930" type="curve"/>
      <point x="200" y="949"/>
      <point x="261" y="1286"/>
      <point x="261" y="1361" type="curve" smooth="yes"/>
      <point x="261" y="1435"/>
      <point x="241" y="1470"/>
      <point x="190" y="1470" type="curve" smooth="yes"/>
      <point x="120" y="1470"/>
      <point x="117" y="1434"/>
      <point x="117" y="1342" type="curve" smooth="yes"/>
      <point x="117" y="1269"/>
      <point x="184" y="937"/>
      <point x="184" y="937" type="curve" smooth="yes"/>
      <point x="183" y="943"/>
      <point x="188" y="945"/>
      <point x="190" y="946" type="curve"/>
      <point x="190" y="945"/>
      <point x="198" y="938"/>
    </contour>
    <contour>
      <point x="197" y="930" type="line" smooth="yes"/>
      <point x="197" y="929" type="line"/>
    </contour>
  </outline>
</glyph>
<glyph name="dollar" format="1">
  <advance width="1313"/>
  <unicode hex="0024"/>
  <outline>
    <component base="S"/>
    <contour>
      <point x="597" y="1731" type="line"/>
      <point x="597" y="1416" type="line"/>
      <point x="685" y="1416" type="line"/>
      <point x="685" y="1731" type="line"/>
    </contour>
    <contour>
      <point x="597" y="37" type="line"/>
      <point x="597" y="-278" type="line"/>
      <point x="685" y="-278" type="line"/>
      <point x="685" y="37" type="line"/>
    </contour>
  </outline>
</glyph>
<glyph name="parenright" format="1">
  <advance width="744"/>
  <unicode hex="0029"/>
  <outline>
    <contour>
      <point x="108" y="-243" type="line"/>
      <point x="490" y="-201"/>
      <point x="614" y="194"/>
      <point x="614" y="706" type="curve" smooth="yes"/>
      <point x="614" y="1219"/>
      <point x="490" y="1607"/>
      <point x="108" y="1649" type="curve"/>
      <point x="91" y="1545" type="line"/>
      <point x="365" y="1494"/>
      <point x="452" y="1197"/>
      <point x="452" y="705" type="curve" smooth="yes"/>
      <point x="452" y="214"/>
      <point x="365" y="-88"/>
      <point x="91" y="-138" type="curve"/>
    </contour>
  </outline>
</glyph>
<glyph name="asterisk" format="1">
  <advance width="1134"/>
  <unicode hex="002A"/>
  <outline>
    <contour>
      <point x="548" y="1014" type="line"/>
      <point x="552" y="1015"/>
      <point x="556" y="1017"/>
      <point x="560" y="1018" type="curve" smooth="yes"/>
      <point x="561" y="1017"/>
      <point x="562" y="1015"/>
      <point x="563" y="1014" type="curve"/>
      <point x="560" y="1011" type="line" smooth="yes"/>
    </contour>
    <contour>
      <point x="548" y="1014" type="curve"/>
      <point x="470" y="1035"/>
      <point x="309" y="1092"/>
      <point x="236" y="1092" type="curve" smooth="yes"/>
      <point x="172" y="1092"/>
      <point x="141" y="1073"/>
      <point x="141" y="1016" type="curve" smooth="yes"/>
      <point x="141" y="958"/>
      <point x="174" y="938"/>
      <point x="238" y="938" type="curve" smooth="yes"/>
      <point x="310" y="938"/>
      <point x="429" y="978"/>
    </contour>
    <contour>
      <point x="560" y="1011" type="curve" smooth="yes"/>
      <point x="426" y="857"/>
      <point x="326" y="749"/>
      <point x="326" y="663" type="curve" smooth="yes"/>
      <point x="326" y="637"/>
      <point x="363" y="607"/>
      <point x="392" y="607" type="curve" smooth="yes"/>
      <point x="478" y="607"/>
      <point x="495" y="735"/>
      <point x="568" y="1009" type="curve"/>
      <point x="566" y="1010"/>
      <point x="563" y="1010"/>
    </contour>
    <contour>
      <point x="560" y="1018" type="curve" smooth="yes"/>
      <point x="563" y="1019"/>
      <point x="565" y="1019"/>
      <point x="568" y="1020" type="curve"/>
      <point x="566" y="1018"/>
      <point x="565" y="1016"/>
      <point x="563" y="1014" type="curve" smooth="yes"/>
      <point x="564" y="1012"/>
      <point x="566" y="1011"/>
      <point x="568" y="1009" type="curve"/>
      <point x="569" y="1011"/>
      <point x="568" y="1014"/>
      <point x="569" y="1016" type="curve" smooth="yes"/>
      <point x="526" y="1211"/>
      <point x="479" y="1436"/>
      <point x="384" y="1436" type="curve" smooth="yes"/>
      <point x="381" y="1436"/>
      <point x="378" y="1435"/>
      <point x="375" y="1435" type="curve"/>
      <point x="324" y="1407"/>
      <point x="314" y="1380"/>
      <point x="314" y="1342" type="curve" smooth="yes"/>
      <point x="314" y="1314"/>
      <point x="391" y="1207"/>
    </contour>
    <contour>
      <point x="593" y="1015" type="curve"/>
      <point x="590" y="1014"/>
      <point x="587" y="1012"/>
      <point x="583" y="1011" type="curve" smooth="yes"/>
      <point x="580" y="1014" type="line"/>
      <point x="581" y="1015"/>
      <point x="582" y="1017"/>
      <point x="583" y="1018" type="curve" smooth="yes"/>
      <point x="586" y="1017"/>
      <point x="589" y="1016"/>
    </contour>
    <contour>
      <point x="593" y="1015" type="curve"/>
      <point x="673" y="991"/>
      <point x="822" y="938"/>
      <point x="898" y="938" type="curve" smooth="yes"/>
      <point x="965" y="938"/>
      <point x="998" y="958"/>
      <point x="998" y="1016" type="curve" smooth="yes"/>
      <point x="998" y="1073"/>
      <point x="966" y="1092"/>
      <point x="903" y="1092" type="curve" smooth="yes"/>
      <point x="825" y="1092"/>
      <point x="768" y="1069"/>
    </contour>
    <contour>
      <point x="583" y="1018" type="curve" smooth="yes"/>
      <point x="790" y="1247"/>
      <point x="813" y="1304"/>
      <point x="813" y="1353" type="curve" smooth="yes"/>
      <point x="813" y="1385"/>
      <point x="795" y="1408"/>
      <point x="759" y="1435" type="curve"/>
      <point x="752" y="1435" type="line" smooth="yes"/>
      <point x="624" y="1435"/>
      <point x="583" y="1071"/>
      <point x="572" y="1015" type="curve"/>
      <point x="602" y="883"/>
      <point x="639" y="712"/>
      <point x="696" y="637" type="curve"/>
      <point x="716" y="614"/>
      <point x="737" y="605"/>
      <point x="757" y="605" type="curve" smooth="yes"/>
      <point x="796" y="605"/>
      <point x="829" y="641"/>
      <point x="829" y="683" type="curve" smooth="yes"/>
      <point x="829" y="711"/>
      <point x="749" y="819"/>
      <point x="583" y="1011" type="curve" smooth="yes"/>
      <point x="581" y="1010"/>
      <point x="578" y="1010"/>
      <point x="575" y="1009" type="curve"/>
      <point x="580" y="1014" type="line"/>
      <point x="578" y="1016"/>
      <point x="577" y="1018"/>
      <point x="575" y="1020" type="curve"/>
      <point x="578" y="1019"/>
      <point x="580" y="1019"/>
    </contour>
    <contour>
      <point x="572" y="1015" type="curve" smooth="yes"/>
      <point x="571" y="1012"/>
      <point x="571" y="1010"/>
      <point x="571" y="1009" type="curve"/>
      <point x="570" y="1011"/>
      <point x="570" y="1014"/>
      <point x="569" y="1016" type="curve" smooth="yes"/>
      <point x="570" y="1018"/>
      <point x="570" y="1020"/>
      <point x="571" y="1022" type="curve"/>
      <point x="571" y="1020"/>
      <point x="572" y="1017"/>
    </contour>
    <contour>
      <point x="568" y="1009" type="line"/>
      <point x="568" y="1009" type="line"/>
    </contour>
  </outline>
</glyph>
<glyph name="plus" format="1">
  <advance width="962"/>
  <unicode hex="002B"/>
  <outline>
    <contour>
      <point x="413" y="251" type="line"/>
      <point x="547" y="251" type="line"/>
      <point x="547" y="610" type="line"/>
      <point x="847" y="610" type="line"/>
      <point x="847" y="741" type="line"/>
      <point x="547" y="741" type="line"/>
      <point x="547" y="1100" type="line"/>
      <point x="413" y="1100" type="line"/>
      <point x="413" y="741" type="line"/>
      <point x="114" y="741" type="line"/>
      <point x="114" y="610" type="line"/>
      <point x="413" y="610" type="line"/>
    </contour>
  </outline>
</glyph>
<glyph name="slash" format="1">
  <advance width="708"/>
  <unicode hex="002F"/>
  <outline>
    <contour>
      <point x="97" y="-32" type="line"/>
      <point x="229" y="-32" type="line"/>
      <point x="609" y="1498" type="line"/>
      <point x="466" y="1498" type="line"/>
    </contour>
  </outline>
</glyph>
<glyph name="two" format="1">
  <advance width="1256"/>
  <unicode hex="0032"/>
  <outline>
    <contour>
      <point x="201" y="0" type="line"/>
      <point x="1015" y="0" type="line"/>
      <point x="1015" y="110" type="line"/>
      <point x="329" y="110" type="line"/>
      <point x="329" y="344"/>
      <point x="366" y="364"/>
      <point x="587" y="509" type="curve" smooth="yes"/>
      <point x="881" y="700"/>
      <point x="1038" y="745"/>
      <point x="1038" y="1098" type="curve" smooth="yes"/>
      <point x="1038" y="1411"/>
      <point x="929" y="1485"/>
      <point x="610" y="1485" type="curve" smooth="yes"/>
      <point x="309" y="1485"/>
      <point x="202" y="1406"/>
      <point x="202" y="1210" type="curve" smooth="yes"/>
      <point x="202" y="1191" type="line"/>
      <point x="308" y="1148" type="line"/>
      <point x="318" y="1279"/>
      <point x="318" y="1283"/>
      <point x="368" y="1325" type="curve" smooth="yes"/>
      <point x="420" y="1367"/>
      <point x="513" y="1379"/>
      <point x="629" y="1379" type="curve" smooth="yes"/>
      <point x="764" y="1379"/>
      <point x="827" y="1356"/>
      <point x="862" y="1301" type="curve" smooth="yes"/>
      <point x="898" y="1247"/>
      <point x="915" y="1226"/>
      <point x="915" y="1109" type="curve" smooth="yes"/>
      <point x="915" y="780"/>
      <point x="806" y="785"/>
      <point x="527" y="600" type="curve" smooth="yes"/>
      <point x="330" y="471"/>
      <point x="201" y="427"/>
      <point x="201" y="115" type="curve" smooth="yes"/>
    </contour>
  </outline>
</glyph>
<glyph name="five" format="1">
  <advance width="1256"/>
  <unicode hex="0035"/>
  <outline>
    <contour>
      <point x="623" y="-20" type="curve" smooth="yes"/>
      <point x="993" y="-20"/>
      <point x="1108" y="49"/>
      <point x="1108" y="434" type="curve" smooth="yes"/>
      <point x="1108" y="779"/>
      <point x="1053" y="916"/>
      <point x="669" y="916" type="curve" smooth="yes"/>
      <point x="432" y="916"/>
      <point x="384" y="821"/>
      <point x="343" y="702" type="curve"/>
      <point x="380" y="1345" type="line"/>
      <point x="1028" y="1345" type="line"/>
      <point x="1028" y="1466" type="line"/>
      <point x="221" y="1466" type="line"/>
      <point x="228" y="664" type="line"/>
      <point x="352" y="648" type="line"/>
      <point x="365" y="721"/>
      <point x="391" y="724"/>
      <point x="430" y="751" type="curve" smooth="yes"/>
      <point x="485" y="789"/>
      <point x="552" y="791"/>
      <point x="653" y="791" type="curve" smooth="yes"/>
      <point x="976" y="791"/>
      <point x="982" y="739"/>
      <point x="982" y="478" type="curve" smooth="yes"/>
      <point x="982" y="449" type="line" smooth="yes"/>
      <point x="982" y="385"/>
      <point x="986" y="460"/>
      <point x="986" y="406" type="curve" smooth="yes"/>
      <point x="986" y="221"/>
      <point x="959" y="100"/>
      <point x="625" y="100" type="curve" smooth="yes"/>
      <point x="378" y="100"/>
      <point x="342" y="131"/>
      <point x="320" y="306" type="curve" smooth="yes"/>
      <point x="317" y="333"/>
      <point x="313" y="313"/>
      <point x="311" y="347" type="curve"/>
      <point x="216" y="321" type="line"/>
      <point x="216" y="293"/>
      <point x="214" y="285"/>
      <point x="214" y="259" type="curve" smooth="yes"/>
      <point x="214" y="-1"/>
      <point x="396" y="-20"/>
    </contour>
  </outline>
</glyph>
<glyph name="eight" format="1">
  <advance width="1256"/>
  <unicode hex="0038"/>
  <outline>
    <contour>
      <point x="442" y="841" type="line"/>
      <point x="379" y="875"/>
      <point x="364" y="971"/>
      <point x="364" y="1136" type="curve" smooth="yes"/>
      <point x="364" y="1343"/>
      <point x="370" y="1366"/>
      <point x="629" y="1366" type="curve" smooth="yes"/>
      <point x="888" y="1366"/>
      <point x="894" y="1342"/>
      <point x="894" y="1136" type="curve" smooth="yes"/>
      <point x="894" y="961"/>
      <point x="880" y="875"/>
      <point x="818" y="841" type="curve"/>
    </contour>
    <contour>
      <point x="628" y="94" type="curve" smooth="yes"/>
      <point x="335" y="94"/>
      <point x="299" y="169"/>
      <point x="299" y="289" type="curve" smooth="yes"/>
      <point x="299" y="494" type="line" smooth="yes"/>
      <point x="299" y="712"/>
      <point x="374" y="714"/>
      <point x="629" y="714" type="curve" smooth="yes"/>
      <point x="884" y="714"/>
      <point x="959" y="711"/>
      <point x="959" y="494" type="curve" smooth="yes"/>
      <point x="959" y="289" type="line" smooth="yes"/>
      <point x="959" y="169"/>
      <point x="923" y="94"/>
    </contour>
    <contour>
      <point x="629" y="-20" type="curve" smooth="yes"/>
      <point x="965" y="-20"/>
      <point x="1097" y="49"/>
      <point x="1097" y="375" type="curve" smooth="yes"/>
      <point x="1097" y="646"/>
      <point x="1031" y="721"/>
      <point x="917" y="785" type="curve"/>
      <point x="997" y="830"/>
      <point x="1026" y="954"/>
      <point x="1026" y="1120" type="curve" smooth="yes"/>
      <point x="1026" y="1400"/>
      <point x="961" y="1485"/>
      <point x="628" y="1485" type="curve" smooth="yes"/>
      <point x="297" y="1485"/>
      <point x="233" y="1400"/>
      <point x="233" y="1120" type="curve" smooth="yes"/>
      <point x="233" y="954"/>
      <point x="261" y="830"/>
      <point x="341" y="785" type="curve"/>
      <point x="228" y="721"/>
      <point x="163" y="646"/>
      <point x="163" y="375" type="curve" smooth="yes"/>
      <point x="163" y="48"/>
      <point x="294" y="-20"/>
    </contour>
  </outline>
</glyph>
<glyph name="nine" format="1">
  <advance width="1256"/>
  <unicode hex="0039"/>
  <outline>
    <contour>
      <point x="633" y="673" type="curve" smooth="yes"/>
      <point x="286" y="673"/>
      <point x="274" y="729"/>
      <point x="274" y="998" type="curve" smooth="yes"/>
      <point x="274" y="1118" type="line" smooth="yes"/>
      <point x="274" y="1310"/>
      <point x="296" y="1379"/>
      <point x="634" y="1379" type="curve" smooth="yes"/>
      <point x="969" y="1379"/>
      <point x="972" y="1281"/>
      <point x="974" y="1073" type="curve"/>
      <point x="977" y="1005" type="line" smooth="yes"/>
      <point x="977" y="979"/>
      <point x="978" y="954"/>
      <point x="978" y="931" type="curve" smooth="yes"/>
      <point x="978" y="759"/>
      <point x="953" y="673"/>
    </contour>
    <contour>
      <point x="637" y="-20" type="curve" smooth="yes"/>
      <point x="1093" y="-20"/>
      <point x="1109" y="140"/>
      <point x="1109" y="609" type="curve" smooth="yes"/>
      <point x="1109" y="724" type="line" smooth="yes"/>
      <point x="1109" y="794" type="line" smooth="yes"/>
      <point x="1109" y="1383"/>
      <point x="1082" y="1485"/>
      <point x="592" y="1485" type="curve" smooth="yes"/>
      <point x="212" y="1485"/>
      <point x="146" y="1379"/>
      <point x="146" y="991" type="curve" smooth="yes"/>
      <point x="146" y="597"/>
      <point x="284" y="546"/>
      <point x="638" y="546" type="curve" smooth="yes"/>
      <point x="856" y="546"/>
      <point x="910" y="590"/>
      <point x="973" y="677" type="curve"/>
      <point x="971" y="354" type="line" smooth="yes"/>
      <point x="970" y="150"/>
      <point x="912" y="87"/>
      <point x="640" y="87" type="curve" smooth="yes"/>
      <point x="506" y="87"/>
      <point x="381" y="92"/>
      <point x="347" y="126" type="curve" smooth="yes"/>
      <point x="313" y="162"/>
      <point x="312" y="185"/>
      <point x="312" y="306" type="curve"/>
      <point x="195" y="299" type="line"/>
      <point x="195" y="176" type="line"/>
      <point x="196" y="-3"/>
      <point x="408" y="-20"/>
    </contour>
  </outline>
</glyph>
<glyph name="less" format="1">
  <advance width="918"/>
  <unicode hex="003C"/>
  <outline>
    <contour>
      <point x="782" y="288" type="line"/>
      <point x="782" y="452" type="line"/>
      <point x="274" y="765" type="line"/>
      <point x="782" y="1069" type="line"/>
      <point x="782" y="1243" type="line"/>
      <point x="111" y="787" type="line"/>
      <point x="111" y="724" type="line"/>
    </contour>
  </outline>
</glyph>
<glyph name="greater" format="1">
  <advance width="921"/>
  <unicode hex="003E"/>
  <outline>
    <contour>
      <point x="135" y="288" type="line"/>
      <point x="809" y="724" type="line"/>
      <point x="809" y="787" type="line"/>
      <point x="135" y="1243" type="line"/>
      <point x="135" y="1069" type="line"/>
      <point x="644" y="764" type="line"/>
      <point x="135" y="451" type="line"/>
    </contour>
  </outline>
</glyph>
<glyph name="question" format="1">
  <advance width="859"/>
  <unicode hex="003F"/>
  <outline>
    <contour>
      <point x="336" y="-29" type="curve" smooth="yes"/>
      <point x="401" y="-29"/>
      <point x="464" y="14"/>
      <point x="464" y="105" type="curve" smooth="yes"/>
      <point x="464" y="190"/>
      <point x="395" y="237"/>
      <point x="329" y="237" type="curve" smooth="yes"/>
      <point x="264" y="237"/>
      <point x="201" y="194"/>
      <point x="201" y="105" type="curve" smooth="yes"/>
      <point x="201" y="17"/>
      <point x="269" y="-29"/>
    </contour>
    <contour>
      <point x="342" y="425" type="curve" smooth="yes"/>
      <point x="382" y="425"/>
      <point x="394" y="445"/>
      <point x="393" y="464" type="curve" smooth="yes"/>
      <point x="401" y="578"/>
      <point x="475" y="679"/>
      <point x="578" y="804" type="curve"/>
      <point x="689" y="929"/>
      <point x="733" y="1046"/>
      <point x="733" y="1156" type="curve" smooth="yes"/>
      <point x="733" y="1407"/>
      <point x="587" y="1497"/>
      <point x="360" y="1497" type="curve" smooth="yes"/>
      <point x="284" y="1497"/>
      <point x="207" y="1474"/>
      <point x="122" y="1433" type="curve"/>
      <point x="141" y="1311" type="line"/>
      <point x="258" y="1337"/>
      <point x="325" y="1349"/>
      <point x="372" y="1349" type="curve" smooth="yes"/>
      <point x="493" y="1349"/>
      <point x="558" y="1270"/>
      <point x="558" y="1149" type="curve" smooth="yes"/>
      <point x="558" y="1046"/>
      <point x="535" y="1006"/>
      <point x="475" y="935" type="curve"/>
      <point x="353" y="774"/>
      <point x="293" y="675"/>
      <point x="293" y="460" type="curve" smooth="yes"/>
      <point x="293" y="447"/>
      <point x="307" y="425"/>
    </contour>
  </outline>
</glyph>
<glyph name="at" format="1">
  <advance width="2008"/>
  <unicode hex="0040"/>
  <outline>
    <contour>
      <point x="1031" y="211" type="curve" smooth="yes"/>
      <point x="768" y="211"/>
      <point x="743" y="263"/>
      <point x="743" y="407" type="curve" smooth="yes"/>
      <point x="743" y="617"/>
      <point x="776" y="635"/>
      <point x="886" y="635" type="curve" smooth="yes"/>
      <point x="908" y="635"/>
      <point x="932" y="634"/>
      <point x="960" y="634" type="curve" smooth="yes"/>
      <point x="977" y="634" type="line" smooth="yes"/>
      <point x="1288" y="636" type="line"/>
      <point x="1287" y="482" type="line" smooth="yes"/>
      <point x="1286" y="343"/>
      <point x="1211" y="211"/>
    </contour>
    <contour>
      <point x="1008" y="-197" type="curve" smooth="yes"/>
      <point x="1253" y="-197"/>
      <point x="1405" y="-167"/>
      <point x="1583" y="-103" type="curve"/>
      <point x="1548" y="-12" type="line"/>
      <point x="1356" y="-81"/>
      <point x="1121" y="-101"/>
      <point x="1000" y="-101" type="curve" smooth="yes"/>
      <point x="474" y="-101"/>
      <point x="329" y="145"/>
      <point x="329" y="650" type="curve" smooth="yes"/>
      <point x="329" y="1167"/>
      <point x="499" y="1381"/>
      <point x="1033" y="1381" type="curve" smooth="yes"/>
      <point x="1610" y="1381"/>
      <point x="1678" y="1159"/>
      <point x="1678" y="630" type="curve" smooth="yes"/>
      <point x="1678" y="599" type="line" smooth="yes"/>
      <point x="1678" y="239"/>
      <point x="1677" y="312"/>
      <point x="1608" y="259" type="curve" smooth="yes"/>
      <point x="1566" y="229"/>
      <point x="1516" y="228"/>
      <point x="1409" y="228" type="curve"/>
      <point x="1409" y="932" type="line" smooth="yes"/>
      <point x="1409" y="1092"/>
      <point x="1290" y="1180"/>
      <point x="1066" y="1180" type="curve" smooth="yes"/>
      <point x="819" y="1180"/>
      <point x="676" y="1163"/>
      <point x="675" y="982" type="curve" smooth="yes"/>
      <point x="675" y="947"/>
      <point x="679" y="928"/>
      <point x="687" y="888" type="curve"/>
      <point x="777" y="888" type="line"/>
      <point x="775" y="919"/>
      <point x="770" y="946"/>
      <point x="770" y="971" type="curve" smooth="yes"/>
      <point x="770" y="993"/>
      <point x="774" y="1013"/>
      <point x="788" y="1031" type="curve" smooth="yes"/>
      <point x="822" y="1074"/>
      <point x="900" y="1081"/>
      <point x="1033" y="1081" type="curve" smooth="yes"/>
      <point x="1234" y="1081"/>
      <point x="1288" y="1061"/>
      <point x="1288" y="906" type="curve" smooth="yes"/>
      <point x="1288" y="692" type="line"/>
      <point x="1115" y="724"/>
      <point x="1070" y="737"/>
      <point x="953" y="737" type="curve" smooth="yes"/>
      <point x="752" y="737"/>
      <point x="637" y="659"/>
      <point x="637" y="438" type="curve" smooth="yes"/>
      <point x="637" y="195"/>
      <point x="748" y="134"/>
      <point x="1014" y="134" type="curve"/>
      <point x="1258" y="134"/>
      <point x="1312" y="198"/>
      <point x="1344" y="310" type="curve"/>
      <point x="1353" y="233"/>
      <point x="1399" y="169"/>
      <point x="1475" y="169" type="curve" smooth="yes"/>
      <point x="1477" y="169" type="line" smooth="yes"/>
      <point x="1785" y="169"/>
      <point x="1800" y="268"/>
      <point x="1800" y="610" type="curve" smooth="yes"/>
      <point x="1800" y="1248"/>
      <point x="1666" y="1475"/>
      <point x="1012" y="1475" type="curve" smooth="yes"/>
      <point x="411" y="1475"/>
      <point x="204" y="1194"/>
      <point x="204" y="616" type="curve" smooth="yes"/>
      <point x="204" y="27"/>
      <point x="410" y="-197"/>
    </contour>
  </outline>
</glyph>
<glyph name="J" format="1">
  <advance width="709"/>
  <unicode hex="004A"/>
  <outline>
    <contour>
      <point x="356" y="0" type="move" name="bot"/>
    </contour>
    <contour>
      <point x="480" y="1475" type="move" name="top"/>
    </contour>
    <contour>
      <point x="263" y="17" type="curve" smooth="yes"/>
      <point x="442" y="17"/>
      <point x="555" y="53"/>
      <point x="555" y="329" type="curve" smooth="yes"/>
      <point x="555" y="1466" type="line"/>
      <point x="408" y="1466" type="line"/>
      <point x="408" y="355" type="line" smooth="yes"/>
      <point x="408" y="189"/>
      <point x="403" y="161"/>
      <point x="261" y="143" type="curve" smooth="yes"/>
      <point x="215" y="137"/>
      <point x="184" y="136"/>
      <point x="106" y="136" type="curve"/>
      <point x="108" y="22" type="line" smooth="yes"/>
      <point x="112" y="22" type="line" smooth="yes"/>
      <point x="131" y="22"/>
      <point x="207" y="17"/>
    </contour>
    <contour>
      <point x="108" y="22" type="line" smooth="yes"/>
      <point x="108" y="21" type="line" smooth="yes"/>
      <point x="107" y="22" type="line" smooth="yes"/>
    </contour>
  </outline>
</glyph>
<glyph name="P" format="1">
  <advance width="1251"/>
  <unicode hex="0050"/>
  <outline>
    <contour>
      <point x="630" y="0" type="move" name="bot"/>
    </contour>
    <contour>
      <point x="630" y="1475" type="move" name="top"/>
    </contour>
    <contour>
      <point x="339" y="682" type="line"/>
      <point x="339" y="1335" type="line"/>
      <point x="776" y="1335" type="line" smooth="yes"/>
      <point x="854" y="1335"/>
      <point x="893" y="1325"/>
      <point x="928" y="1295" type="curve" smooth="yes"/>
      <point x="987" y="1246"/>
      <point x="998" y="1225"/>
      <point x="1001" y="1020" type="curve" smooth="yes"/>
      <point x="1001" y="1006" type="line" smooth="yes"/>
      <point x="1001" y="826"/>
      <point x="1000" y="789"/>
      <point x="922" y="729" type="curve" smooth="yes"/>
      <point x="880" y="697"/>
      <point x="828" y="682"/>
      <point x="730" y="682" type="curve" smooth="yes"/>
    </contour>
    <contour>
      <point x="193" y="0" type="line"/>
      <point x="339" y="0" type="line"/>
      <point x="339" y="548" type="line"/>
      <point x="770" y="548" type="line" smooth="yes"/>
      <point x="1003" y="548"/>
      <point x="1136" y="605"/>
      <point x="1147" y="1005" type="curve"/>
      <point x="1140" y="1388"/>
      <point x="1047" y="1466"/>
      <point x="703" y="1466" type="curve" smooth="yes"/>
      <point x="193" y="1466" type="line"/>
    </contour>
    <contour>
      <point x="1147" y="1005" type="line" smooth="yes"/>
      <point x="1147" y="958" type="line" smooth="yes"/>
    </contour>
  </outline>
</glyph>
<glyph name="S" format="1">
  <advance width="1250"/>
  <unicode hex="0053"/>
  <outline>
    <contour>
      <point x="618" y="0" type="move" name="bot"/>
    </contour>
    <contour>
      <point x="618" y="1475" type="move" name="top"/>
    </contour>
    <contour>
      <point x="615" y="-20" type="curve" smooth="yes"/>
      <point x="968" y="-20"/>
      <point x="1112" y="-10"/>
      <point x="1112" y="418" type="curve" smooth="yes"/>
      <point x="1112" y="764"/>
      <point x="1007" y="772"/>
      <point x="753" y="814" type="curve"/>
      <point x="438" y="868" type="line" smooth="yes"/>
      <point x="398" y="874"/>
      <point x="361" y="885"/>
      <point x="337" y="901" type="curve"/>
      <point x="302" y="935"/>
      <point x="295" y="944"/>
      <point x="295" y="1029" type="curve" smooth="yes"/>
      <point x="295" y="1294"/>
      <point x="320" y="1341"/>
      <point x="647" y="1341" type="curve" smooth="yes"/>
      <point x="810" y="1341"/>
      <point x="872" y="1330"/>
      <point x="908" y="1292" type="curve" smooth="yes"/>
      <point x="946" y="1254"/>
      <point x="944" y="1221"/>
      <point x="953" y="1110" type="curve"/>
      <point x="1081" y="1154" type="line"/>
      <point x="1081" y="1438"/>
      <point x="948" y="1485"/>
      <point x="612" y="1485" type="curve" smooth="yes"/>
      <point x="254" y="1485"/>
      <point x="155" y="1418"/>
      <point x="155" y="1070" type="curve" smooth="yes"/>
      <point x="155" y="856"/>
      <point x="206" y="770"/>
      <point x="368" y="749" type="curve"/>
      <point x="719" y="692" type="line" smooth="yes"/>
      <point x="720" y="692" type="line" smooth="yes"/>
      <point x="732" y="692"/>
      <point x="837" y="674"/>
      <point x="873" y="674" type="curve" smooth="yes"/>
      <point x="881" y="674"/>
      <point x="885" y="675"/>
      <point x="885" y="677" type="curve"/>
      <point x="955" y="663"/>
      <point x="966" y="646"/>
      <point x="967" y="444" type="curve" smooth="yes"/>
      <point x="967" y="430" type="line" smooth="yes"/>
      <point x="967" y="169"/>
      <point x="937" y="119"/>
      <point x="621" y="119" type="curve" smooth="yes"/>
      <point x="432" y="119"/>
      <point x="359" y="135"/>
      <point x="317" y="184" type="curve" smooth="yes"/>
      <point x="276" y="234"/>
      <point x="278" y="266"/>
      <point x="263" y="402" type="curve"/>
      <point x="132" y="374" type="line"/>
      <point x="147" y="85"/>
      <point x="149" y="-20"/>
    </contour>
  </outline>
</glyph>
<glyph name="V" format="1">
  <advance width="1273"/>
  <unicode hex="0056"/>
  <outline>
    <contour>
      <point x="634" y="227" type="line"/>
      <point x="200" y="1466" type="line"/>
      <point x="38" y="1466" type="line"/>
      <point x="569" y="0" type="line"/>
      <point x="691" y="0" type="line"/>
      <point x="1230" y="1466" type="line"/>
      <point x="1062" y="1466" type="line"/>
    </contour>
  </outline>
</glyph>
<glyph name="X" format="1">
  <advance width="1218"/>
  <unicode hex="0058"/>
  <outline>
    <contour>
      <point x="695" y="751" type="line"/>
      <point x="1158" y="1466" type="line"/>
      <point x="988" y="1466" type="line"/>
      <point x="611" y="886" type="line"/>
      <point x="246" y="1466" type="line"/>
      <point x="87" y="1466" type="line"/>
      <point x="535" y="749" type="line"/>
      <point x="49" y="0" type="line"/>
      <point x="224" y="0" type="line"/>
      <point x="620" y="612" type="line"/>
      <point x="620" y="613" type="line"/>
      <point x="1003" y="0" type="line"/>
      <point x="1167" y="0" type="line"/>
    </contour>
  </outline>
</glyph>
<glyph name="Z" format="1">
  <advance width="1093"/>
  <unicode hex="005A"/>
  <outline>
    <contour>
      <point x="551" y="0" type="move" name="bot"/>
    </contour>
    <contour>
      <point x="551" y="1475" type="move" name="top"/>
    </contour>
    <contour>
      <point x="150" y="1466" type="line"/>
      <point x="167" y="1346" type="line"/>
      <point x="867" y="1346" type="line"/>
      <point x="101" y="155" type="line"/>
      <point x="113" y="0" type="line"/>
      <point x="989" y="0" type="line"/>
      <point x="988" y="118" type="line"/>
      <point x="260" y="118" type="line"/>
      <point x="1013" y="1304" type="line"/>
      <point x="1000" y="1466" type="line"/>
    </contour>
  </outline>
</glyph>
<glyph name="bracketleft" format="1">
  <advance width="640"/>
  <unicode hex="005B"/>
  <outline>
    <contour>
      <point x="196" y="1596" type="line"/>
      <point x="196" y="-261" type="line"/>
      <point x="567" y="-261" type="line"/>
      <point x="567" y="-130" type="line"/>
      <point x="325" y="-130" type="line"/>
      <point x="325" y="1466" type="line"/>
      <point x="567" y="1466" type="line"/>
      <point x="567" y="1596" type="line"/>
    </contour>
  </outline>
</glyph>
<glyph name="backslash" format="1">
  <advance width="711"/>
  <unicode hex="005C"/>
  <outline>
    <contour>
      <point x="106" y="1498" type="line"/>
      <point x="460" y="-32" type="line"/>
      <point x="608" y="-32" type="line"/>
      <point x="267" y="1498" type="line"/>
    </contour>
  </outline>
</glyph>
<glyph name="i" format="1">
  <advance width="501"/>
  <unicode hex="0069"/>
  <outline>
    <component base="dotaccent" xOffset="83"/>
    <component base="dotlessi" xOffset="32"/>
    <contour>
      <point x="14" y="0" type="move" name="ogonek"/>
    </contour>
  </outline>
</glyph>
<glyph name="l" format="1">
  <advance width="463"/>
  <unicode hex="006C"/>
  <outline>
    <contour>
      <point x="256" y="0" type="move" name="bottom"/>
    </contour>
    <contour>
      <point x="256" y="1112" type="move" name="mid"/>
    </contour>
    <contour>
      <point x="257" y="0" type="move" name="bot"/>
    </contour>
    <contour>
      <point x="262" y="1069" type="move" name="caron.alt"/>
    </contour>
    <contour>
      <point x="253" y="1475" type="move" name="top"/>
    </contour>
    <contour>
      <point x="183" y="1500" type="line"/>
      <point x="183" y="0" type="line"/>
      <point x="328" y="0" type="line"/>
      <point x="328" y="1500" type="line"/>
    </contour>
  </outline>
</glyph>
<glyph name="u" format="1">
  <advance width="1112"/>
  <unicode hex="0075"/>
  <outline>
    <contour>
      <point x="879" y="0" type="move" name="ogonek"/>
    </contour>
    <contour>
      <point x="548" y="1069" type="move" name="top"/>
    </contour>
    <contour>
      <point x="807" y="1050" type="line"/>
      <point x="807" y="426" type="line" smooth="yes"/>
      <point x="807" y="383"/>
      <point x="810" y="342"/>
      <point x="810" y="304" type="curve" smooth="yes"/>
      <point x="810" y="183"/>
      <point x="782" y="99"/>
      <point x="546" y="99" type="curve" smooth="yes"/>
      <point x="314" y="99"/>
      <point x="289" y="143"/>
      <point x="289" y="332" type="curve" smooth="yes"/>
      <point x="289" y="382"/>
      <point x="291" y="443"/>
      <point x="291" y="515" type="curve" smooth="yes"/>
      <point x="291" y="1050" type="line"/>
      <point x="146" y="1050" type="line"/>
      <point x="146" y="470" type="line" smooth="yes"/>
      <point x="146" y="109"/>
      <point x="192" y="-20"/>
      <point x="478" y="-20" type="curve" smooth="yes"/>
      <point x="637" y="-20"/>
      <point x="769" y="29"/>
      <point x="803" y="146" type="curve"/>
      <point x="818" y="-1" type="line"/>
      <point x="954" y="-1" type="line"/>
      <point x="954" y="1050" type="line"/>
    </contour>
  </outline>
</glyph>
<glyph name="x" format="1">
  <advance width="970"/>
  <unicode hex="0078"/>
  <outline>
    <contour>
      <point x="749" y="0" type="line"/>
      <point x="905" y="0" type="line"/>
      <point x="559" y="533" type="line"/>
      <point x="562" y="536" type="line"/>
      <point x="896" y="1050" type="line"/>
      <point x="754" y="1050" type="line"/>
      <point x="491" y="639" type="line"/>
      <point x="224" y="1050" type="line"/>
      <point x="70" y="1050" type="line"/>
      <point x="403" y="535" type="line"/>
      <point x="62" y="0" type="line"/>
      <point x="206" y="0" type="line"/>
      <point x="473" y="427" type="line"/>
    </contour>
  </outline>
</glyph>
<glyph name="braceleft" format="1">
  <advance width="789"/>
  <unicode hex="007B"/>
  <outline>
    <contour>
      <point x="731" y="-184" type="curve"/>
      <point x="731" y="-95" type="line"/>
      <point x="493" y="-95"/>
      <point x="491" y="-51"/>
      <point x="491" y="283" type="curve" smooth="yes"/>
      <point x="491" y="517"/>
      <point x="466" y="665"/>
      <point x="300" y="694" type="curve"/>
      <point x="466" y="724"/>
      <point x="491" y="872"/>
      <point x="491" y="1106" type="curve" smooth="yes"/>
      <point x="491" y="1440"/>
      <point x="493" y="1484"/>
      <point x="731" y="1484" type="curve"/>
      <point x="731" y="1573" type="line"/>
      <point x="381" y="1573"/>
      <point x="346" y="1482"/>
      <point x="342" y="1121" type="curve" smooth="yes"/>
      <point x="338" y="786"/>
      <point x="261" y="772"/>
      <point x="73" y="772" type="curve"/>
      <point x="73" y="617" type="line"/>
      <point x="261" y="617"/>
      <point x="338" y="603"/>
      <point x="342" y="268" type="curve" smooth="yes"/>
      <point x="346" y="-93"/>
      <point x="381" y="-184"/>
    </contour>
  </outline>
</glyph>
<glyph name="asciitilde" format="1">
  <advance width="1024"/>
  <unicode hex="007E"/>
  <outline>
    <contour>
      <point x="254" y="787" type="curve" smooth="yes"/>
      <point x="398" y="787"/>
      <point x="597" y="612"/>
      <point x="760" y="612" type="curve" smooth="yes"/>
      <point x="893" y="612"/>
      <point x="938" y="718"/>
      <point x="967" y="860" type="curve"/>
      <point x="905" y="895" type="line"/>
      <point x="866" y="806"/>
      <point x="852" y="761"/>
      <point x="779" y="761" type="curve" smooth="yes"/>
      <point x="633" y="761"/>
      <point x="482" y="925"/>
      <point x="299" y="925" type="curve" smooth="yes"/>
      <point x="289" y="925"/>
      <point x="280" y="924"/>
      <point x="270" y="923" type="curve" smooth="yes"/>
      <point x="185" y="913"/>
      <point x="86" y="827"/>
      <point x="62" y="703" type="curve"/>
      <point x="123" y="668" type="line"/>
      <point x="149" y="748"/>
      <point x="182" y="787"/>
    </contour>
  </outline>
</glyph>
<glyph name="brokenbar" format="1">
  <advance width="414"/>
  <unicode hex="00A6"/>
  <outline>
    <contour>
      <point x="152" y="550" type="line"/>
      <point x="152" y="-239" type="line"/>
      <point x="285" y="-239" type="line"/>
      <point x="285" y="550" type="line"/>
    </contour>
    <contour>
      <point x="152" y="1622" type="line"/>
      <point x="152" y="833" type="line"/>
      <point x="285" y="833" type="line"/>
      <point x="285" y="1622" type="line"/>
    </contour>
  </outline>
</glyph>
<glyph name="copyright" format="1">
  <advance width="1780"/>
  <unicode hex="00A9"/>
  <outline>
    <contour>
      <point x="907" y="-95" type="curve" smooth="yes"/>
      <point x="1341" y="-95"/>
      <point x="1727" y="73"/>
      <point x="1727" y="623" type="curve" smooth="yes"/>
      <point x="1727" y="850" type="line" smooth="yes"/>
      <point x="1727" y="1438"/>
      <point x="1331" y="1600"/>
      <point x="896" y="1600" type="curve" smooth="yes"/>
      <point x="457" y="1600"/>
      <point x="63" y="1438"/>
      <point x="63" y="853" type="curve" smooth="yes"/>
      <point x="63" y="623" type="line" smooth="yes"/>
      <point x="63" y="70"/>
      <point x="463" y="-95"/>
    </contour>
    <contour>
      <point x="882" y="-6" type="curve" smooth="yes"/>
      <point x="522" y="-6"/>
      <point x="174" y="128"/>
      <point x="174" y="624" type="curve" smooth="yes"/>
      <point x="174" y="850" type="line" smooth="yes"/>
      <point x="174" y="1394"/>
      <point x="525" y="1510"/>
      <point x="893" y="1510" type="curve" smooth="yes"/>
      <point x="1271" y="1510"/>
      <point x="1615" y="1386"/>
      <point x="1615" y="838" type="curve" smooth="yes"/>
      <point x="1615" y="636" type="line" smooth="yes"/>
      <point x="1615" y="117"/>
      <point x="1280" y="-6"/>
    </contour>
    <contour>
      <point x="875" y="215" type="curve" smooth="yes"/>
      <point x="1240" y="215"/>
      <point x="1279" y="264"/>
      <point x="1279" y="556" type="curve" smooth="yes"/>
      <point x="1279" y="620" type="line"/>
      <point x="1174" y="620" type="line"/>
      <point x="1173" y="551" type="line" smooth="yes"/>
      <point x="1170" y="336"/>
      <point x="1163" y="320"/>
      <point x="903" y="320" type="curve" smooth="yes"/>
      <point x="633" y="320"/>
      <point x="610" y="356"/>
      <point x="610" y="534" type="curve" smooth="yes"/>
      <point x="609" y="1015" type="line" smooth="yes"/>
      <point x="609" y="1191"/>
      <point x="612" y="1210"/>
      <point x="903" y="1210" type="curve" smooth="yes"/>
      <point x="1170" y="1210"/>
      <point x="1170" y="1188"/>
      <point x="1173" y="962" type="curve"/>
      <point x="1174" y="908" type="line"/>
      <point x="1279" y="908" type="line"/>
      <point x="1276" y="976" type="line"/>
      <point x="1270" y="1275"/>
      <point x="1201" y="1315"/>
      <point x="875" y="1315" type="curve" smooth="yes"/>
      <point x="521" y="1315"/>
      <point x="487" y="1236"/>
      <point x="487" y="859" type="curve" smooth="yes"/>
      <point x="487" y="733" type="line" smooth="yes"/>
      <point x="487" y="285"/>
      <point x="539" y="215"/>
    </contour>
  </outline>
</glyph>
<glyph name="logicalnot" format="1">
  <advance width="1147"/>
  <unicode hex="00AC"/>
  <outline>
    <contour>
      <point x="879" y="253" type="line"/>
      <point x="1017" y="253" type="line"/>
      <point x="1017" y="726" type="line"/>
      <point x="117" y="726" type="line"/>
      <point x="117" y="614" type="line"/>
      <point x="879" y="614" type="line"/>
    </contour>
  </outline>
</glyph>
<glyph name="uni00AD" format="1">
  <advance width="1014"/>
  <unicode hex="00AD"/>
  <outline>
    <contour>
      <point x="120" y="546" type="line"/>
      <point x="899" y="546" type="line"/>
      <point x="899" y="689" type="line"/>
      <point x="120" y="689" type="line"/>
    </contour>
  </outline>
</glyph>
<glyph name="registered" format="1">
  <advance width="1786"/>
  <unicode hex="00AE"/>
  <outline>
    <contour>
      <point x="672" y="813" type="line"/>
      <point x="672" y="1162" type="line"/>
      <point x="930" y="1162" type="line" smooth="yes"/>
      <point x="1070" y="1162"/>
      <point x="1134" y="1154"/>
      <point x="1141" y="988" type="curve"/>
      <point x="1136" y="836"/>
      <point x="1093" y="813"/>
      <point x="891" y="813" type="curve" smooth="yes"/>
    </contour>
    <contour>
      <point x="910" y="-95" type="curve" smooth="yes"/>
      <point x="1343" y="-95"/>
      <point x="1729" y="73"/>
      <point x="1729" y="623" type="curve" smooth="yes"/>
      <point x="1729" y="850" type="line" smooth="yes"/>
      <point x="1729" y="1438"/>
      <point x="1333" y="1600"/>
      <point x="898" y="1600" type="curve" smooth="yes"/>
      <point x="460" y="1600"/>
      <point x="65" y="1438"/>
      <point x="65" y="853" type="curve" smooth="yes"/>
      <point x="65" y="623" type="line" smooth="yes"/>
      <point x="65" y="70"/>
      <point x="466" y="-95"/>
    </contour>
    <contour>
      <point x="885" y="-6" type="curve" smooth="yes"/>
      <point x="525" y="-6"/>
      <point x="177" y="128"/>
      <point x="177" y="624" type="curve" smooth="yes"/>
      <point x="177" y="850" type="line" smooth="yes"/>
      <point x="177" y="1394"/>
      <point x="527" y="1510"/>
      <point x="896" y="1510" type="curve" smooth="yes"/>
      <point x="1273" y="1510"/>
      <point x="1618" y="1386"/>
      <point x="1618" y="838" type="curve" smooth="yes"/>
      <point x="1618" y="636" type="line" smooth="yes"/>
      <point x="1618" y="117"/>
      <point x="1282" y="-6"/>
    </contour>
    <contour>
      <point x="582" y="264" type="line"/>
      <point x="673" y="264" type="line"/>
      <point x="672" y="729" type="line"/>
      <point x="933" y="729" type="line" smooth="yes"/>
      <point x="1105" y="729"/>
      <point x="1143" y="683"/>
      <point x="1143" y="480" type="curve" smooth="yes"/>
      <point x="1143" y="463" type="line" smooth="yes"/>
      <point x="1143" y="265" type="line"/>
      <point x="1236" y="265" type="line"/>
      <point x="1236" y="601" type="line" smooth="yes"/>
      <point x="1236" y="706"/>
      <point x="1191" y="760"/>
      <point x="1082" y="773" type="curve"/>
      <point x="1191" y="796"/>
      <point x="1243" y="862"/>
      <point x="1244" y="1007" type="curve" smooth="yes"/>
      <point x="1244" y="1210"/>
      <point x="1164" y="1254"/>
      <point x="880" y="1254" type="curve" smooth="yes"/>
      <point x="582" y="1254" type="line"/>
    </contour>
  </outline>
</glyph>
<glyph name="threesuperior" format="1">
  <advance width="1263"/>
  <unicode hex="00B3"/>
  <outline>
    <contour>
      <point x="652" y="413" type="curve" smooth="yes"/>
      <point x="914" y="413"/>
      <point x="1039" y="474"/>
      <point x="1039" y="720" type="curve" smooth="yes"/>
      <point x="1039" y="828"/>
      <point x="1038" y="926"/>
      <point x="944" y="950" type="curve"/>
      <point x="1035" y="972"/>
      <point x="1037" y="1048"/>
      <point x="1037" y="1149" type="curve" smooth="yes"/>
      <point x="1037" y="1162" type="line" smooth="yes"/>
      <point x="1037" y="1409"/>
      <point x="975" y="1486"/>
      <point x="651" y="1486" type="curve" smooth="yes"/>
      <point x="303" y="1486"/>
      <point x="238" y="1403"/>
      <point x="238" y="1140" type="curve" smooth="yes"/>
      <point x="238" y="1122" type="line"/>
      <point x="411" y="1122" type="line"/>
      <point x="412" y="1126" type="line"/>
      <point x="416" y="1332"/>
      <point x="442" y="1358"/>
      <point x="652" y="1358" type="curve" smooth="yes"/>
      <point x="864" y="1358"/>
      <point x="879" y="1317"/>
      <point x="879" y="1153" type="curve" smooth="yes"/>
      <point x="879" y="1110"/>
      <point x="880" y="1080"/>
      <point x="880" y="1059" type="curve" smooth="yes"/>
      <point x="880" y="1016"/>
      <point x="876" y="1010"/>
      <point x="852" y="1010" type="curve" smooth="yes"/>
      <point x="844" y="1010"/>
      <point x="834" y="1011"/>
      <point x="822" y="1011" type="curve" smooth="yes"/>
      <point x="544" y="1011" type="line"/>
      <point x="544" y="900" type="line"/>
      <point x="822" y="900" type="line" smooth="yes"/>
      <point x="848" y="900" type="line" smooth="yes"/>
      <point x="877" y="900"/>
      <point x="879" y="894"/>
      <point x="879" y="829" type="curve" smooth="yes"/>
      <point x="879" y="782" type="line" smooth="yes"/>
      <point x="879" y="611"/>
      <point x="859" y="550"/>
      <point x="670" y="550" type="curve" smooth="yes"/>
      <point x="437" y="550"/>
      <point x="409" y="600"/>
      <point x="409" y="744" type="curve" smooth="yes"/>
      <point x="409" y="757"/>
      <point x="410" y="771"/>
      <point x="410" y="786" type="curve"/>
      <point x="238" y="786" type="line"/>
      <point x="238" y="752" type="line" smooth="yes"/>
      <point x="238" y="502"/>
      <point x="314" y="413"/>
    </contour>
    <contour>
      <point x="410" y="786" type="line"/>
      <point x="410" y="796" type="line"/>
      <point x="411" y="786" type="line"/>
    </contour>
  </outline>
</glyph>
<glyph name="acute" format="1">
  <advance width="584"/>
  <unicode hex="00B4"/>
  <outline>
    <contour>
      <point x="295" y="1069" type="move" name="_top"/>
    </contour>
    <contour>
      <point x="62" y="1244" type="curve"/>
      <point x="61" y="1243" type="line" smooth="yes"/>
      <point x="61" y="1239"/>
      <point x="416" y="1382"/>
      <point x="430" y="1382" type="curve"/>
      <point x="475" y="1397"/>
      <point x="495" y="1435"/>
      <point x="495" y="1468" type="curve" smooth="yes"/>
      <point x="495" y="1509"/>
      <point x="463" y="1550"/>
      <point x="402" y="1550" type="curve" smooth="yes"/>
      <point x="371" y="1550"/>
      <point x="345" y="1533"/>
      <point x="324" y="1516" type="curve" smooth="yes"/>
      <point x="297" y="1493"/>
      <point x="83" y="1267"/>
      <point x="55" y="1244" type="curve"/>
      <point x="56" y="1243"/>
      <point x="57" y="1242"/>
      <point x="58" y="1242" type="curve" smooth="yes"/>
      <point x="59" y="1244"/>
      <point x="61" y="1244"/>
    </contour>
    <contour>
      <point x="55" y="1244" type="curve"/>
      <point x="54" y="1243"/>
      <point x="52" y="1242"/>
      <point x="52" y="1242" type="curve" smooth="yes"/>
      <point x="51" y="1242"/>
      <point x="52" y="1245"/>
      <point x="53" y="1245" type="curve" smooth="yes"/>
      <point x="53" y="1245"/>
      <point x="54" y="1245"/>
    </contour>
  </outline>
</glyph>
<glyph name="ordmasculine" format="1">
  <advance width="911"/>
  <unicode hex="00BA"/>
  <outline>
    <contour>
      <point x="252" y="858" type="curve" smooth="yes"/>
      <point x="252" y="1313" type="line" smooth="yes"/>
      <point x="252" y="1391"/>
      <point x="344" y="1403"/>
      <point x="457" y="1403" type="curve" smooth="yes"/>
      <point x="570" y="1403"/>
      <point x="662" y="1391"/>
      <point x="662" y="1313" type="curve" smooth="yes"/>
      <point x="662" y="858" type="line" smooth="yes"/>
      <point x="662" y="791"/>
      <point x="607" y="775"/>
      <point x="457" y="775" type="curve" smooth="yes"/>
      <point x="306" y="775"/>
      <point x="252" y="791"/>
    </contour>
    <contour>
      <point x="460" y="697" type="line" smooth="yes"/>
      <point x="770" y="697"/>
      <point x="776" y="805"/>
      <point x="776" y="1087" type="curve" smooth="yes"/>
      <point x="776" y="1416"/>
      <point x="759" y="1486"/>
      <point x="456" y="1486" type="curve" smooth="yes"/>
      <point x="162" y="1486"/>
      <point x="139" y="1419"/>
      <point x="138" y="1114" type="curve" smooth="yes"/>
      <point x="138" y="1108" type="line" smooth="yes"/>
      <point x="138" y="798"/>
      <point x="139" y="697"/>
      <point x="455" y="697" type="curve" smooth="yes"/>
    </contour>
  </outline>
</glyph>
<glyph name="guillemotright" format="1">
  <advance width="1716"/>
  <unicode hex="00BB"/>
  <outline>
    <contour>
      <point x="816" y="266" type="curve" smooth="yes"/>
      <point x="831" y="266"/>
      <point x="849" y="272"/>
      <point x="866" y="286" type="curve" smooth="yes"/>
      <point x="1365" y="679" type="line" smooth="yes"/>
      <point x="1412" y="716"/>
      <point x="1433" y="749"/>
      <point x="1433" y="782" type="curve" smooth="yes"/>
      <point x="1433" y="821"/>
      <point x="1410" y="850"/>
      <point x="1365" y="885" type="curve" smooth="yes"/>
      <point x="866" y="1278" type="line" smooth="yes"/>
      <point x="851" y="1291"/>
      <point x="839" y="1300"/>
      <point x="826" y="1300" type="curve" smooth="yes"/>
      <point x="823" y="1300"/>
      <point x="819" y="1299"/>
      <point x="816" y="1298" type="curve"/>
      <point x="813" y="1299"/>
      <point x="810" y="1299"/>
      <point x="807" y="1299" type="curve" smooth="yes"/>
      <point x="775" y="1299"/>
      <point x="752" y="1270"/>
      <point x="752" y="1234" type="curve"/>
      <point x="752" y="1223"/>
      <point x="757" y="1200"/>
      <point x="777" y="1182" type="curve" smooth="yes"/>
      <point x="1202" y="782" type="line"/>
      <point x="777" y="382" type="line" smooth="yes"/>
      <point x="760" y="366"/>
      <point x="752" y="347"/>
      <point x="752" y="330" type="curve" smooth="yes"/>
      <point x="752" y="296"/>
      <point x="779" y="266"/>
    </contour>
    <contour>
      <point x="280" y="266" type="curve" smooth="yes"/>
      <point x="296" y="266"/>
      <point x="313" y="272"/>
      <point x="331" y="286" type="curve" smooth="yes"/>
      <point x="829" y="679" type="line" smooth="yes"/>
      <point x="877" y="716"/>
      <point x="898" y="749"/>
      <point x="898" y="782" type="curve" smooth="yes"/>
      <point x="898" y="821"/>
      <point x="875" y="850"/>
      <point x="829" y="885" type="curve"/>
      <point x="331" y="1278" type="line" smooth="yes"/>
      <point x="315" y="1291"/>
      <point x="302" y="1300"/>
      <point x="290" y="1300" type="curve" smooth="yes"/>
      <point x="287" y="1300"/>
      <point x="284" y="1299"/>
      <point x="281" y="1298" type="curve"/>
      <point x="278" y="1299"/>
      <point x="275" y="1299"/>
      <point x="272" y="1299" type="curve" smooth="yes"/>
      <point x="240" y="1299"/>
      <point x="217" y="1270"/>
      <point x="217" y="1234" type="curve" smooth="yes"/>
      <point x="217" y="1223"/>
      <point x="222" y="1200"/>
      <point x="242" y="1182" type="curve" smooth="yes"/>
      <point x="667" y="782" type="line"/>
      <point x="242" y="382" type="line" smooth="yes"/>
      <point x="225" y="366"/>
      <point x="216" y="347"/>
      <point x="216" y="330" type="curve" smooth="yes"/>
      <point x="216" y="296"/>
      <point x="244" y="266"/>
    </contour>
  </outline>
</glyph>
<glyph name="onehalf" format="1">
  <advance width="2356"/>
  <unicode hex="00BD"/>
  <outline>
    <contour>
      <point x="523" y="0" type="line"/>
      <point x="630" y="0" type="line"/>
      <point x="1356" y="1510" type="line"/>
      <point x="1149" y="1510" type="line"/>
    </contour>
    <contour>
      <point x="283" y="426" type="line"/>
      <point x="438" y="426" type="line"/>
      <point x="438" y="1466" type="line"/>
      <point x="354" y="1466" type="line"/>
      <point x="297" y="1431"/>
      <point x="229" y="1411"/>
      <point x="139" y="1411" type="curve"/>
      <point x="139" y="1291" type="line"/>
      <point x="283" y="1291" type="line"/>
    </contour>
    <contour>
      <point x="1825" y="924" type="curve" smooth="yes"/>
      <point x="2042" y="924"/>
      <point x="2072" y="876"/>
      <point x="2072" y="777" type="curve" smooth="yes"/>
      <point x="2072" y="723" type="line" smooth="yes"/>
      <point x="2072" y="620"/>
      <point x="2009" y="601"/>
      <point x="1812" y="543" type="curve" smooth="yes"/>
      <point x="1515" y="460"/>
      <point x="1429" y="378"/>
      <point x="1429" y="116" type="curve" smooth="yes"/>
      <point x="1429" y="0" type="line"/>
      <point x="2212" y="0" type="line"/>
      <point x="2212" y="129" type="line"/>
      <point x="1580" y="129" type="line"/>
      <point x="1580" y="145" type="line" smooth="yes"/>
      <point x="1580" y="270"/>
      <point x="1585" y="354"/>
      <point x="1816" y="431" type="curve"/>
      <point x="1989" y="482"/>
      <point x="2229" y="500"/>
      <point x="2229" y="742" type="curve" smooth="yes"/>
      <point x="2229" y="1008"/>
      <point x="2087" y="1075"/>
      <point x="1825" y="1075" type="curve" smooth="yes"/>
      <point x="1582" y="1075"/>
      <point x="1422" y="1014"/>
      <point x="1421" y="744" type="curve"/>
      <point x="1421" y="702" type="line"/>
      <point x="1591" y="727" type="line"/>
      <point x="1591" y="753" type="line" smooth="yes"/>
      <point x="1591" y="848"/>
      <point x="1601" y="924"/>
    </contour>
  </outline>
</glyph>
<glyph name="Oslash" format="1">
  <advance width="1735"/>
  <unicode hex="00D8"/>
  <outline>
    <component base="O"/>
    <contour>
      <point x="852" y="1595" type="move" name="top"/>
    </contour>
    <contour>
      <point x="254" y="-180" type="line"/>
      <point x="414" y="70" type="line"/>
      <point x="298" y="149" type="line"/>
      <point x="135" y="-106" type="line"/>
    </contour>
    <contour>
      <point x="1131" y="1332" type="line"/>
      <point x="1310" y="1599" type="line"/>
      <point x="1187" y="1671" type="line"/>
      <point x="1003" y="1396" type="line"/>
    </contour>
  </outline>
</glyph>
<glyph name="Thorn" format="1">
  <advance width="1247"/>
  <unicode hex="00DE"/>
  <outline>
    <contour>
      <point x="320" y="567" type="line"/>
      <point x="320" y="1106" type="line"/>
      <point x="562" y="1106" type="line" smooth="yes"/>
      <point x="660" y="1106"/>
      <point x="736" y="1110"/>
      <point x="795" y="1110" type="curve" smooth="yes"/>
      <point x="963" y="1110"/>
      <point x="988" y="1078"/>
      <point x="988" y="832" type="curve" smooth="yes"/>
      <point x="988" y="584"/>
      <point x="984" y="567"/>
      <point x="666" y="567" type="curve" smooth="yes"/>
    </contour>
    <contour>
      <point x="177" y="0" type="line"/>
      <point x="320" y="0" type="line"/>
      <point x="320" y="414" type="line"/>
      <point x="550" y="414" type="line" smooth="yes"/>
      <point x="594" y="414"/>
      <point x="644" y="411"/>
      <point x="696" y="411" type="curve" smooth="yes"/>
      <point x="893" y="411"/>
      <point x="1118" y="452"/>
      <point x="1130" y="842" type="curve"/>
      <point x="1117" y="1185"/>
      <point x="989" y="1254"/>
      <point x="581" y="1254" type="curve" smooth="yes"/>
      <point x="320" y="1254" type="line"/>
      <point x="320" y="1465" type="line"/>
      <point x="177" y="1465" type="line"/>
    </contour>
    <contour>
      <point x="1130" y="842" type="curve" smooth="yes"/>
      <point x="1130" y="853"/>
      <point x="1131" y="864"/>
      <point x="1131" y="876" type="curve" smooth="yes"/>
      <point x="1131" y="825" type="line" smooth="yes"/>
      <point x="1131" y="831"/>
      <point x="1130" y="836"/>
    </contour>
  </outline>
</glyph>
<glyph name="caron" format="1">
  <advance width="729"/>
  <unicode hex="02C7"/>
  <outline>
    <contour>
      <point x="347" y="1069" type="move" name="_top"/>
    </contour>
    <contour>
      <point x="117" y="1642" type="curve" smooth="yes"/>
      <point x="97" y="1642"/>
      <point x="79" y="1629"/>
      <point x="79" y="1610" type="curve" smooth="yes"/>
      <point x="79" y="1603"/>
      <point x="81" y="1597"/>
      <point x="84" y="1592" type="curve" smooth="yes"/>
      <point x="267" y="1306" type="line"/>
      <point x="292" y="1270"/>
      <point x="320" y="1259"/>
      <point x="354" y="1259" type="curve" smooth="yes"/>
      <point x="387" y="1259"/>
      <point x="416" y="1270"/>
      <point x="441" y="1306" type="curve"/>
      <point x="623" y="1592" type="line" smooth="yes"/>
      <point x="626" y="1597"/>
      <point x="629" y="1603"/>
      <point x="629" y="1610" type="curve" smooth="yes"/>
      <point x="629" y="1628"/>
      <point x="610" y="1642"/>
      <point x="590" y="1642" type="curve" smooth="yes"/>
      <point x="583" y="1642"/>
      <point x="578" y="1640"/>
      <point x="575" y="1637" type="curve" smooth="yes"/>
      <point x="354" y="1401" type="line"/>
      <point x="133" y="1637" type="line" smooth="yes"/>
      <point x="130" y="1641"/>
      <point x="124" y="1642"/>
    </contour>
  </outline>
</glyph>
<glyph name="dotaccent" format="1">
  <advance width="352"/>
  <unicode hex="02D9"/>
  <outline>
    <contour>
      <point x="167" y="1069" type="move" name="_top"/>
    </contour>
    <contour>
      <point x="167" y="1383" type="curve" smooth="yes"/>
      <point x="217" y="1383"/>
      <point x="273" y="1412"/>
      <point x="273" y="1493" type="curve" smooth="yes"/>
      <point x="273" y="1570"/>
      <point x="217" y="1601"/>
      <point x="167" y="1601" type="curve" smooth="yes"/>
      <point x="117" y="1601"/>
      <point x="62" y="1574"/>
      <point x="62" y="1493" type="curve" smooth="yes"/>
      <point x="62" y="1415"/>
      <point x="116" y="1383"/>
    </contour>
  </outline>
</glyph>
<glyph name="ogonek" format="1">
  <advance width="666"/>
  <unicode hex="02DB"/>
  <outline>
    <contour>
      <point x="390" y="0" type="move" name="_ogonek"/>
    </contour>
    <contour>
      <point x="344" y="0" type="line"/>
      <point x="181" y="-87"/>
      <point x="130" y="-208"/>
      <point x="130" y="-324" type="curve" smooth="yes"/>
      <point x="130" y="-446"/>
      <point x="235" y="-502"/>
      <point x="346" y="-502" type="curve" smooth="yes"/>
      <point x="405" y="-502"/>
      <point x="467" y="-488"/>
      <point x="524" y="-449" type="curve"/>
      <point x="504" y="-377" type="line"/>
      <point x="477" y="-386"/>
      <point x="449" y="-391"/>
      <point x="421" y="-391" type="curve" smooth="yes"/>
      <point x="356" y="-391"/>
      <point x="301" y="-361"/>
      <point x="301" y="-281" type="curve" smooth="yes"/>
      <point x="301" y="-179"/>
      <point x="353" y="-46"/>
      <point x="444" y="0" type="curve"/>
    </contour>
  </outline>
</glyph>
<glyph name="breveinvertedcomb" format="1">
  <advance width="769"/>
  <unicode hex="0311"/>
  <outline>
    <contour>
      <point x="398" y="1069" type="move" name="_top"/>
    </contour>
    <contour>
      <point x="114" y="1241" type="curve"/>
      <point x="234" y="1241" type="line"/>
      <point x="234" y="1360"/>
      <point x="279" y="1414"/>
      <point x="376" y="1414" type="curve" smooth="yes"/>
      <point x="473" y="1414"/>
      <point x="518" y="1360"/>
      <point x="518" y="1241" type="curve"/>
      <point x="637" y="1241" type="line"/>
      <point x="637" y="1425"/>
      <point x="555" y="1509"/>
      <point x="376" y="1509" type="curve" smooth="yes"/>
      <point x="197" y="1509"/>
      <point x="114" y="1425"/>
    </contour>
  </outline>
</glyph>
<glyph name="commaturnedabovecomb" format="1">
  <advance width="542"/>
  <unicode hex="0312"/>
  <outline>
    <contour>
      <point x="284" y="1069" type="move" name="_top"/>
    </contour>
    <contour>
      <point x="282" y="1204" type="curve" smooth="yes"/>
      <point x="378" y="1204"/>
      <point x="430" y="1310"/>
      <point x="430" y="1350" type="curve" smooth="yes"/>
      <point x="430" y="1454"/>
      <point x="389" y="1507"/>
      <point x="293" y="1511" type="curve"/>
      <point x="293" y="1606"/>
      <point x="341" y="1682"/>
      <point x="418" y="1686" type="curve"/>
      <point x="418" y="1734" type="line"/>
      <point x="241" y="1734"/>
      <point x="115" y="1576"/>
      <point x="115" y="1414" type="curve" smooth="yes"/>
      <point x="115" y="1283"/>
      <point x="183" y="1204"/>
    </contour>
  </outline>
</glyph>
<glyph name="Delta" format="1">
  <advance width="1359"/>
  <unicode hex="0394"/>
  <outline>
    <contour>
      <point x="214" y="121" type="line"/>
      <point x="610" y="1263" type="line"/>
      <point x="1008" y="121" type="line"/>
    </contour>
    <contour>
      <point x="58" y="0" type="line"/>
      <point x="1296" y="0" type="line"/>
      <point x="744" y="1466" type="line"/>
      <point x="578" y="1466" type="line"/>
    </contour>
  </outline>
</glyph>
<glyph name="mu" format="1">
  <advance width="1110"/>
  <unicode hex="03BC"/>
  <outline>
    <contour>
      <point x="810" y="1050" type="line"/>
      <point x="810" y="418" type="line" smooth="yes"/>
      <point x="810" y="375"/>
      <point x="813" y="333"/>
      <point x="813" y="296" type="curve" smooth="yes"/>
      <point x="813" y="177"/>
      <point x="784" y="96"/>
      <point x="548" y="96" type="curve" smooth="yes"/>
      <point x="328" y="96"/>
      <point x="299" y="132"/>
      <point x="292" y="299" type="curve"/>
      <point x="292" y="1050" type="line"/>
      <point x="148" y="1050" type="line"/>
      <point x="148" y="-361" type="line"/>
      <point x="292" y="-361" type="line"/>
      <point x="292" y="3" type="line"/>
      <point x="339" y="-14"/>
      <point x="407" y="-25"/>
      <point x="479" y="-25" type="curve" smooth="yes"/>
      <point x="616" y="-25"/>
      <point x="767" y="17"/>
      <point x="806" y="146" type="curve"/>
      <point x="821" y="-1" type="line"/>
      <point x="956" y="-1" type="line"/>
      <point x="956" y="1050" type="line"/>
    </contour>
  </outline>
</glyph>
<glyph name="endash" format="1">
  <advance width="1044"/>
  <unicode hex="2013"/>
  <outline>
    <contour>
      <point x="118" y="607" type="line"/>
      <point x="926" y="607" type="line"/>
      <point x="926" y="738" type="line"/>
      <point x="118" y="738" type="line"/>
    </contour>
  </outline>
</glyph>
<glyph name="quoteright" format="1">
  <advance width="513"/>
  <unicode hex="2019"/>
  <outline>
    <contour>
      <point x="126" y="1002" type="line"/>
      <point x="285" y="1002"/>
      <point x="412" y="1175"/>
      <point x="412" y="1341" type="curve" smooth="yes"/>
      <point x="412" y="1454"/>
      <point x="364" y="1534"/>
      <point x="289" y="1534" type="curve" smooth="yes"/>
      <point x="177" y="1534"/>
      <point x="135" y="1454"/>
      <point x="135" y="1414" type="curve" smooth="yes"/>
      <point x="135" y="1324"/>
      <point x="171" y="1278"/>
      <point x="253" y="1278" type="curve" smooth="yes"/>
      <point x="261" y="1278" type="line"/>
      <point x="261" y="1167"/>
      <point x="213" y="1061"/>
      <point x="126" y="1061" type="curve"/>
    </contour>
  </outline>
</glyph>
<glyph name="quotesinglbase" format="1">
  <advance width="358"/>
  <unicode hex="201A"/>
  <outline>
    <contour>
      <point x="187" y="-262" type="curve" smooth="yes"/>
      <point x="187" y="-271"/>
      <point x="251" y="99"/>
      <point x="251" y="173" type="curve" smooth="yes"/>
      <point x="251" y="247"/>
      <point x="230" y="282"/>
      <point x="180" y="282" type="curve" smooth="yes"/>
      <point x="110" y="282"/>
      <point x="107" y="246"/>
      <point x="107" y="154" type="curve" smooth="yes"/>
      <point x="107" y="85"/>
      <point x="172" y="-256"/>
      <point x="174" y="-256" type="curve" smooth="yes"/>
      <point x="175" y="-256"/>
      <point x="170" y="-247"/>
      <point x="180" y="-242" type="curve"/>
      <point x="180" y="-243"/>
      <point x="187" y="-254"/>
    </contour>
  </outline>
</glyph>
<glyph name="daggerdbl" format="1">
  <advance width="1164"/>
  <unicode hex="2021"/>
  <outline>
    <contour>
      <point x="584" y="-38" type="curve" smooth="yes"/>
      <point x="673" y="-38"/>
      <point x="725" y="19"/>
      <point x="725" y="110" type="curve" smooth="yes"/>
      <point x="725" y="183"/>
      <point x="682" y="333"/>
      <point x="648" y="463" type="curve"/>
      <point x="683" y="452"/>
      <point x="791" y="379"/>
      <point x="934" y="379" type="curve" smooth="yes"/>
      <point x="997" y="379"/>
      <point x="1037" y="434"/>
      <point x="1037" y="493" type="curve" smooth="yes"/>
      <point x="1037" y="570"/>
      <point x="990" y="607"/>
      <point x="909" y="607" type="curve" smooth="yes"/>
      <point x="870" y="607"/>
      <point x="785" y="584"/>
      <point x="646" y="524" type="curve"/>
      <point x="646" y="973" type="line"/>
      <point x="779" y="913"/>
      <point x="862" y="890"/>
      <point x="906" y="890" type="curve" smooth="yes"/>
      <point x="983" y="890"/>
      <point x="1037" y="921"/>
      <point x="1037" y="987" type="curve" smooth="yes"/>
      <point x="1037" y="1080"/>
      <point x="998" y="1119"/>
      <point x="919" y="1119" type="curve" smooth="yes"/>
      <point x="883" y="1119"/>
      <point x="796" y="1096"/>
      <point x="648" y="1034" type="curve"/>
      <point x="682" y="1186"/>
      <point x="725" y="1316"/>
      <point x="725" y="1389" type="curve" smooth="yes"/>
      <point x="725" y="1476"/>
      <point x="671" y="1535"/>
      <point x="584" y="1535" type="curve" smooth="yes"/>
      <point x="495" y="1535"/>
      <point x="441" y="1478"/>
      <point x="441" y="1387" type="curve" smooth="yes"/>
      <point x="441" y="1295"/>
      <point x="514" y="1061"/>
      <point x="520" y="1033" type="curve"/>
      <point x="385" y="1093"/>
      <point x="298" y="1119"/>
      <point x="258" y="1119" type="curve" smooth="yes"/>
      <point x="174" y="1119"/>
      <point x="127" y="1081"/>
      <point x="127" y="1003" type="curve" smooth="yes"/>
      <point x="127" y="922"/>
      <point x="171" y="890"/>
      <point x="258" y="890" type="curve" smooth="yes"/>
      <point x="298" y="890"/>
      <point x="385" y="915"/>
      <point x="521" y="974" type="curve"/>
      <point x="521" y="523" type="line"/>
      <point x="389" y="582"/>
      <point x="302" y="607"/>
      <point x="260" y="607" type="curve" smooth="yes"/>
      <point x="172" y="607"/>
      <point x="127" y="573"/>
      <point x="127" y="493" type="curve" smooth="yes"/>
      <point x="127" y="414"/>
      <point x="175" y="379"/>
      <point x="259" y="379" type="curve" smooth="yes"/>
      <point x="300" y="379"/>
      <point x="386" y="405"/>
      <point x="520" y="464" type="curve"/>
      <point x="463" y="246"/>
      <point x="441" y="184"/>
      <point x="441" y="108" type="curve" smooth="yes"/>
      <point x="441" y="19"/>
      <point x="496" y="-38"/>
    </contour>
  </outline>
</glyph>
<glyph name="bullet" format="1">
  <advance width="882"/>
  <unicode hex="2022"/>
  <outline>
    <contour>
      <point x="444" y="322" type="curve" smooth="yes"/>
      <point x="638" y="322"/>
      <point x="760" y="481"/>
      <point x="760" y="650" type="curve" smooth="yes"/>
      <point x="760" y="808"/>
      <point x="646" y="978"/>
      <point x="446" y="978" type="curve" smooth="yes"/>
      <point x="243" y="978"/>
      <point x="121" y="793"/>
      <point x="121" y="647" type="curve" smooth="yes"/>
      <point x="121" y="492"/>
      <point x="250" y="322"/>
    </contour>
  </outline>
</glyph>
<glyph name="ellipsis" format="1">
  <advance width="1583"/>
  <unicode hex="2026"/>
  <outline>
    <contour>
      <point x="1328" y="-37" type="curve" smooth="yes"/>
      <point x="1414" y="-37"/>
      <point x="1459" y="29"/>
      <point x="1459" y="105" type="curve" smooth="yes"/>
      <point x="1459" y="168"/>
      <point x="1410" y="246"/>
      <point x="1344" y="246" type="curve" smooth="yes"/>
      <point x="1241" y="246"/>
      <point x="1197" y="188"/>
      <point x="1197" y="105" type="curve" smooth="yes"/>
      <point x="1197" y="22"/>
      <point x="1248" y="-37"/>
    </contour>
    <contour>
      <point x="793" y="-37" type="curve" smooth="yes"/>
      <point x="879" y="-37"/>
      <point x="923" y="29"/>
      <point x="923" y="105" type="curve" smooth="yes"/>
      <point x="923" y="187"/>
      <point x="871" y="246"/>
      <point x="790" y="246" type="curve" smooth="yes"/>
      <point x="710" y="246"/>
      <point x="659" y="179"/>
      <point x="659" y="106" type="curve" smooth="yes"/>
      <point x="659" y="35"/>
      <point x="711" y="-37"/>
    </contour>
    <contour>
      <point x="255" y="-37" type="curve" smooth="yes"/>
      <point x="341" y="-37"/>
      <point x="386" y="29"/>
      <point x="386" y="105" type="curve" smooth="yes"/>
      <point x="386" y="176"/>
      <point x="334" y="246"/>
      <point x="255" y="246" type="curve" smooth="yes"/>
      <point x="167" y="246"/>
      <point x="123" y="179"/>
      <point x="123" y="105" type="curve" smooth="yes"/>
      <point x="123" y="29"/>
      <point x="176" y="-37"/>
    </contour>
  </outline>
</glyph>
<glyph name="uni2113" format="1">
  <advance width="1006"/>
  <unicode hex="2113"/>
  <outline>
    <contour>
      <point x="438" y="720" type="curve"/>
      <point x="438" y="1060" type="line" smooth="yes"/>
      <point x="438" y="1407"/>
      <point x="558" y="1450"/>
      <point x="653" y="1450" type="curve" smooth="yes"/>
      <point x="746" y="1450"/>
      <point x="804" y="1412"/>
      <point x="815" y="1283" type="curve" smooth="yes"/>
      <point x="817" y="1265"/>
      <point x="817" y="1248"/>
      <point x="817" y="1231" type="curve" smooth="yes"/>
      <point x="817" y="1050"/>
      <point x="724" y="918"/>
    </contour>
    <contour>
      <point x="983" y="1258" type="curve" smooth="yes"/>
      <point x="983" y="1475"/>
      <point x="842" y="1600"/>
      <point x="671" y="1601" type="curve" smooth="yes"/>
      <point x="486" y="1601"/>
      <point x="288" y="1487"/>
      <point x="288" y="1037" type="curve" smooth="yes"/>
      <point x="288" y="627" type="line"/>
      <point x="121" y="508" type="line"/>
      <point x="121" y="394" type="line"/>
      <point x="288" y="513" type="line"/>
      <point x="288" y="211" type="line" smooth="yes"/>
      <point x="288" y="12"/>
      <point x="425" y="-5"/>
      <point x="523" y="-13" type="curve" smooth="yes"/>
      <point x="534" y="-14"/>
      <point x="548" y="-15"/>
      <point x="563" y="-15" type="curve" smooth="yes"/>
      <point x="650" y="-15"/>
      <point x="783" y="2"/>
      <point x="784" y="2" type="curve" smooth="yes"/>
      <point x="784" y="117" type="line"/>
      <point x="713" y="105"/>
      <point x="664" y="92"/>
      <point x="601" y="92" type="curve" smooth="yes"/>
      <point x="452" y="92"/>
      <point x="435" y="142"/>
      <point x="435" y="230" type="curve" smooth="yes"/>
      <point x="435" y="586" type="line"/>
      <point x="766" y="783"/>
      <point x="983" y="981"/>
    </contour>
  </outline>
</glyph>
<glyph name="partialdiff" format="1">
  <advance width="1156"/>
  <unicode hex="2202"/>
  <outline>
    <contour>
      <point x="556" y="129" type="curve" smooth="yes"/>
      <point x="422" y="129"/>
      <point x="318" y="221"/>
      <point x="318" y="396" type="curve" smooth="yes"/>
      <point x="318" y="523"/>
      <point x="391" y="753"/>
      <point x="606" y="753" type="curve" smooth="yes"/>
      <point x="706" y="753"/>
      <point x="771" y="701"/>
      <point x="859" y="594" type="curve"/>
      <point x="860" y="585"/>
      <point x="860" y="576"/>
      <point x="860" y="567" type="curve" smooth="yes"/>
      <point x="860" y="446"/>
      <point x="801" y="129"/>
    </contour>
    <contour>
      <point x="527" y="-24" type="curve" smooth="yes"/>
      <point x="966" y="-24"/>
      <point x="1061" y="409"/>
      <point x="1061" y="674" type="curve" smooth="yes"/>
      <point x="1061" y="1052"/>
      <point x="883" y="1432"/>
      <point x="325" y="1432" type="curve"/>
      <point x="311" y="1302" type="line"/>
      <point x="699" y="1302"/>
      <point x="860" y="997"/>
      <point x="865" y="763" type="curve"/>
      <point x="808" y="864"/>
      <point x="710" y="908"/>
      <point x="603" y="908" type="curve" smooth="yes"/>
      <point x="262" y="908"/>
      <point x="110" y="596"/>
      <point x="110" y="395" type="curve" smooth="yes"/>
      <point x="110" y="175"/>
      <point x="248" y="-24"/>
    </contour>
  </outline>
</glyph>
<glyph name="summation" format="1">
  <advance width="1287"/>
  <unicode hex="2211"/>
  <outline>
    <contour>
      <point x="158" y="-22" type="line"/>
      <point x="1115" y="-22" type="line"/>
      <point x="1115" y="121" type="line"/>
      <point x="325" y="121" type="line"/>
      <point x="878" y="666" type="line"/>
      <point x="878" y="779" type="line"/>
      <point x="331" y="1328" type="line"/>
      <point x="1122" y="1328" type="line"/>
      <point x="1122" y="1466" type="line"/>
      <point x="158" y="1466" type="line"/>
      <point x="158" y="1319" type="line"/>
      <point x="736" y="713" type="line"/>
      <point x="158" y="139" type="line"/>
    </contour>
  </outline>
</glyph>
<glyph name="radical" format="1">
  <advance width="1334"/>
  <unicode hex="221A"/>
  <outline>
    <contour>
      <point x="490" y="0" type="line"/>
      <point x="639" y="0" type="line"/>
      <point x="1272" y="1464" type="line"/>
      <point x="1042" y="1464" type="line"/>
      <point x="546" y="251" type="line"/>
      <point x="329" y="658" type="line"/>
      <point x="104" y="658" type="line"/>
    </contour>
  </outline>
</glyph>
<glyph name="integral" format="1">
  <advance width="859"/>
  <unicode hex="222B"/>
  <outline>
    <contour>
      <point x="114" y="-304" type="curve" smooth="yes"/>
      <point x="295" y="-304"/>
      <point x="411" y="-255"/>
      <point x="436" y="36" type="curve" smooth="yes"/>
      <point x="549" y="1343" type="line" smooth="yes"/>
      <point x="561" y="1479"/>
      <point x="576" y="1504"/>
      <point x="661" y="1504" type="curve" smooth="yes"/>
      <point x="691" y="1504"/>
      <point x="732" y="1492"/>
      <point x="763" y="1475" type="curve"/>
      <point x="832" y="1623" type="line"/>
      <point x="788" y="1648"/>
      <point x="705" y="1674"/>
      <point x="649" y="1674" type="curve" smooth="yes"/>
      <point x="468" y="1674"/>
      <point x="353" y="1625"/>
      <point x="328" y="1334" type="curve" smooth="yes"/>
      <point x="214" y="27" type="line" smooth="yes"/>
      <point x="202" y="-109"/>
      <point x="187" y="-134"/>
      <point x="102" y="-134" type="curve" smooth="yes"/>
      <point x="72" y="-134"/>
      <point x="31" y="-123"/>
      <point x="0" y="-105" type="curve"/>
      <point x="-69" y="-254" type="line"/>
      <point x="-25" y="-278"/>
      <point x="58" y="-304"/>
    </contour>
  </outline>
</glyph>
<glyph name="lessequal" format="1">
  <advance width="1015"/>
  <unicode hex="2264"/>
  <outline>
    <contour>
      <point x="21" y="0" type="line"/>
      <point x="994" y="0" type="line"/>
      <point x="994" y="92" type="line"/>
      <point x="21" y="92" type="line"/>
    </contour>
    <contour>
      <point x="981" y="218" type="line"/>
      <point x="981" y="365" type="line"/>
      <point x="270" y="556" type="line"/>
      <point x="981" y="729" type="line"/>
      <point x="981" y="932" type="line"/>
      <point x="22" y="634" type="line"/>
      <point x="22" y="477" type="line"/>
    </contour>
  </outline>
</glyph>
<glyph name="foundryicon" format="1">
  <advance width="1340"/>
  <outline>
    <contour>
      <point x="278" y="2" type="line"/>
      <point x="667" y="278" type="line"/>
      <point x="1064" y="2" type="line"/>
      <point x="920" y="461" type="line"/>
      <point x="1311" y="755" type="line"/>
      <point x="826" y="755" type="line"/>
      <point x="667" y="1215" type="line"/>
      <point x="517" y="755" type="line"/>
      <point x="32" y="755" type="line"/>
      <point x="421" y="461" type="line"/>
    </contour>
    <contour>
      <point x="483" y="405" type="line"/>
      <point x="483" y="672" type="line"/>
      <point x="589" y="672" type="line"/>
      <point x="759" y="523" type="line"/>
      <point x="759" y="672" type="line"/>
      <point x="865" y="672" type="line"/>
      <point x="865" y="405" type="line"/>
      <point x="759" y="405" type="line"/>
      <point x="589" y="552" type="line"/>
      <point x="589" y="405" type="line"/>
    </contour>
  </outline>
</glyph>
